<?xml version="1.0" encoding="UTF-8"?>
<svg version="1.1" xmlns="http://www.w3.org/2000/svg" width="1024" height="1024">
<path d="M0 0 C19.82683581 17.41907913 29.60754214 39.10585212 31.91506767 65.34760475 C32.33198428 71.98049369 32.2546099 78.62337368 32.23852539 85.26635742 C32.2382428 86.9132792 32.23840266 88.5602011 32.2389679 90.2071228 C32.23925306 94.6464237 32.23340199 99.08569719 32.22639394 103.52499175 C32.22011339 108.17610899 32.2195529 112.82722696 32.21836853 117.47834778 C32.21526902 126.27177214 32.20707434 135.06518396 32.19701904 143.85860282 C32.18581491 153.87559427 32.18033664 163.89258634 32.17532361 173.9095825 C32.16489049 194.5022302 32.14656228 215.09486073 32.125 235.6875 C9.025 235.6875 -14.075 235.6875 -37.875 235.6875 C-37.85179687 225.63410156 -37.82859375 215.58070313 -37.8046875 205.22265625 C-37.79446059 198.828775 -37.78474895 192.43489974 -37.77734375 186.04101562 C-37.76551199 175.90696165 -37.75166126 165.77294111 -37.72412109 155.63891602 C-37.70406661 148.25583841 -37.69125523 140.87278814 -37.68682301 133.48968405 C-37.68423585 129.58733223 -37.67823844 125.68505856 -37.66353989 121.78273201 C-36.22555671 85.80728655 -36.22555671 85.80728655 -51.72265625 54.71484375 C-60.38061386 46.6076906 -71.21809776 43.17789013 -82.94921875 43.4375 C-94.60288394 44.43327379 -105.90257747 48.52776046 -113.98828125 57.1875 C-124.40423345 70.98917579 -126.05581272 86.47883963 -125.97265625 103.23632812 C-125.97119598 104.35815994 -125.96973572 105.47999176 -125.9682312 106.63581848 C-125.96444013 109.06163476 -125.95833946 111.48744832 -125.95016479 113.91325378 C-125.9373061 117.77701368 -125.93085971 121.64073883 -125.92602539 125.5045166 C-125.91366299 134.42399009 -125.89215891 143.34343285 -125.86979675 152.26288605 C-125.84779822 161.06070791 -125.82998467 169.85851374 -125.81906128 178.65635681 C-125.81269104 182.41843037 -125.80017805 186.1804487 -125.78735352 189.94250488 C-125.78371061 192.31778926 -125.78036022 194.69307412 -125.77734375 197.06835938 C-125.77217743 198.07707596 -125.76701111 199.08579254 -125.76168823 200.12507629 C-125.76086897 212.0096902 -126.39869948 223.77998691 -126.875 235.6875 C-149.975 235.6875 -173.075 235.6875 -196.875 235.6875 C-196.875 153.5175 -196.875 71.3475 -196.875 -13.3125 C-195.885 -12.8175 -195.885 -12.8175 -194.875 -12.3125 C-192.85341074 -12.21587446 -190.82858414 -12.18453488 -188.8046875 -12.18310547 C-187.52996582 -12.17995331 -186.25524414 -12.17680115 -184.94189453 -12.17355347 C-183.544596 -12.1753433 -182.14729779 -12.17739427 -180.75 -12.1796875 C-179.32275374 -12.17901415 -177.89550759 -12.17804385 -176.46826172 -12.17678833 C-173.47557484 -12.17531285 -170.48291779 -12.17746112 -167.49023438 -12.18212891 C-163.64990871 -12.18782612 -159.80965293 -12.18454631 -155.96932983 -12.17855644 C-153.02172314 -12.17494681 -150.07413307 -12.17609127 -147.12652588 -12.17868423 C-145.71030672 -12.17935239 -144.29408606 -12.17852896 -142.87786865 -12.17620468 C-140.90035022 -12.17367163 -138.92282651 -12.17821543 -136.9453125 -12.18310547 C-135.81883301 -12.18390106 -134.69235352 -12.18469666 -133.53173828 -12.18551636 C-130.89924226 -12.13204487 -130.89924226 -12.13204487 -128.875 -13.3125 C-127.53393595 -10.6303719 -127.66049581 -8.42851968 -127.55859375 -5.4296875 C-127.51669922 -4.26308594 -127.47480469 -3.09648437 -127.43164062 -1.89453125 C-127.39232422 -0.67121094 -127.35300781 0.55210937 -127.3125 1.8125 C-127.26931641 3.04355469 -127.22613281 4.27460938 -127.18164062 5.54296875 C-127.07531296 8.59102853 -126.97328219 11.6391719 -126.875 14.6875 C-126.17793945 13.88107056 -126.17793945 13.88107056 -125.46679688 13.05834961 C-124.84869141 12.34686768 -124.23058594 11.63538574 -123.59375 10.90234375 C-122.68012695 9.84841431 -122.68012695 9.84841431 -121.74804688 8.77319336 C-111.07134387 -3.11563274 -97.10395451 -10.15024555 -81.875 -14.3125 C-80.82699219 -14.63089844 -79.77898437 -14.94929688 -78.69921875 -15.27734375 C-52.26943406 -22.28010721 -21.60257543 -16.86569786 0 0 Z " fill="#181919" transform="translate(642.875,405.3125)"/>
<path d="M0 0 C0.99 0.33 1.98 0.66 3 1 C5.72007084 1.07318904 8.41372043 1.09184823 11.1328125 1.0625 C11.9252536 1.05871338 12.7176947 1.05492676 13.53414917 1.05102539 C16.06448792 1.03880771 18.59471287 1.0201693 21.125 1 C24.46093422 0.97351933 27.79681335 0.95347941 31.1328125 0.9375 C31.90569611 0.92920166 32.67857971 0.92090332 33.47488403 0.91235352 C35.31680119 0.90379605 37.15883557 0.94665611 39 1 C40.60129389 2.60129389 40.18367103 4.32552993 40.24047852 6.54467773 C40.26622452 7.51336288 40.29197052 8.48204803 40.3184967 9.48008728 C40.40277607 13.94940545 40.46863856 18.41855117 40.51489258 22.88842773 C40.54641841 25.23863834 40.59405162 27.58869268 40.65844727 29.93823242 C41.25445397 51.98114364 41.25445397 51.98114364 36.3671875 58.1328125 C34.9514844 59.46570944 33.49733793 60.75951273 32 62 C30.8742739 63.27046912 29.7698405 64.56024265 28.69140625 65.87109375 C27.65003833 67.06129838 26.60706262 68.25009816 25.5625 69.4375 C21.71626074 73.83867759 17.92628404 78.26704197 14.25 82.8125 C11.42512161 86.30235888 8.52282421 89.68010514 5.5 93 C0.0090637 99.0313448 -5.47002493 105.20503739 -10 112 C-10.66 112 -11.32 112 -12 112 C-12.32291016 112.78697266 -12.32291016 112.78697266 -12.65234375 113.58984375 C-14.52861105 116.94537106 -17.03493265 119.69083313 -19.5625 122.5625 C-20.65855103 123.82335107 -21.75359489 125.08507833 -22.84765625 126.34765625 C-23.38664551 126.96914551 -23.92563477 127.59063477 -24.48095703 128.23095703 C-26.53135433 130.61880319 -28.51933221 133.05414785 -30.5 135.5 C-34.88945818 140.90362902 -39.41682809 146.18038455 -43.95703125 151.45703125 C-47.75457 155.87201676 -51.51337365 160.31934525 -55.26953125 164.76953125 C-57.13587579 166.98047313 -59.00890318 169.18551214 -60.88671875 171.38671875 C-61.60589478 172.23157837 -61.60589478 172.23157837 -62.33959961 173.09350586 C-63.65755786 174.6414281 -64.97715494 176.18795456 -66.296875 177.734375 C-68.48688424 180.34121095 -70.58272161 183.01360081 -72.66894531 185.70410156 C-73.29424133 186.5099469 -73.91953735 187.31579224 -74.56378174 188.14605713 C-75.03773376 188.75785828 -75.51168579 189.36965942 -76 190 C-74.11770691 189.99666908 -74.11770691 189.99666908 -72.1973877 189.99327087 C-60.31172767 189.97290815 -48.42607123 189.95796501 -36.54039764 189.94818783 C-30.43138394 189.94299216 -24.32238444 189.93595546 -18.21337891 189.92456055 C-12.30651207 189.91361293 -6.3996588 189.90769825 -0.49278259 189.90512276 C1.74919345 189.90328975 3.99116884 189.89971083 6.23313904 189.89426994 C9.39828029 189.88690137 12.56336704 189.88601561 15.72851562 189.88647461 C17.08691811 189.8810817 17.08691811 189.8810817 18.47276306 189.87557983 C26.71346826 189.88832745 34.71917813 190.48244863 43 191 C43 210.14 43 229.28 43 249 C-27.62 249 -98.24 249 -171 249 C-171 197.81668754 -171 197.81668754 -157.8125 182.8125 C-156.67808706 181.51197894 -155.54397967 180.2111913 -154.41015625 178.91015625 C-153.84312988 178.26062988 -153.27610352 177.61110352 -152.69189453 176.94189453 C-145.77973956 169.0083764 -138.97052256 161.00342308 -132.3359375 152.8359375 C-128.63872941 148.34735376 -124.83565815 143.95085124 -121.04296875 139.54296875 C-118.15769425 136.18857372 -115.29320938 132.81708011 -112.4375 129.4375 C-111.76291748 128.63916748 -111.76291748 128.63916748 -111.07470703 127.82470703 C-110.16931558 126.7528666 -109.26404183 125.68092674 -108.35888672 124.60888672 C-106.53290227 122.44696837 -104.70489675 120.2867642 -102.87670898 118.12670898 C-101.96068121 117.04433746 -101.04482764 115.96181847 -100.12915039 114.87915039 C-97.81543212 112.14363268 -95.49956105 109.40998789 -93.1796875 106.6796875 C-88.94920376 101.69685653 -84.7414632 96.70297285 -80.625 91.625 C-73.58095828 82.97486619 -66.20676159 74.59813979 -58.79321289 66.26416016 C-57.72424522 65.06226547 -57.72424522 65.06226547 -56.63368225 63.83609009 C-55.82500954 62.92722549 -55.82500954 62.92722549 -55 62 C-55.87079225 62.00276538 -55.87079225 62.00276538 -56.75917625 62.00558662 C-70.87159853 62.04971665 -84.98401048 62.08283265 -99.09648705 62.10362434 C-105.9211207 62.11394578 -112.74570836 62.1280226 -119.5703125 62.15087891 C-126.15143356 62.17290929 -132.73251926 62.18455551 -139.31367874 62.18975449 C-141.8295937 62.19346141 -144.34550592 62.20069966 -146.8614006 62.21146011 C-150.37429298 62.22589263 -153.88698529 62.2279814 -157.39990234 62.22705078 C-158.44934525 62.23424133 -159.49878815 62.24143188 -160.58003235 62.24884033 C-162.01035545 62.24471634 -162.01035545 62.24471634 -163.46957397 62.24050903 C-164.30103125 62.24235262 -165.13248852 62.24419621 -165.98914146 62.24609566 C-168 62 -168 62 -170 60 C-169.34 60 -168.68 60 -168 60 C-168.495 58.515 -168.495 58.515 -169 57 C-169.08764147 55.31304907 -169.11765627 53.6228147 -169.11352539 51.93359375 C-169.11344986 50.90242432 -169.11337433 49.87125488 -169.11329651 48.80883789 C-169.10813522 47.69629639 -169.10297394 46.58375488 -169.09765625 45.4375 C-169.0962413 44.29466553 -169.09482635 43.15183105 -169.09336853 41.97436523 C-169.08776467 38.31621704 -169.0752185 34.65812971 -169.0625 31 C-169.05748488 28.53385506 -169.05292199 26.06770915 -169.04882812 23.6015625 C-169.03898262 18.17258986 -169.02476181 12.74364863 -169.00672913 7.31469727 C-169.00157897 5.54313758 -169 3.77156718 -169 2 C-128.53053027 1.31462773 -88.06601642 0.89087211 -47.59035492 0.87661743 C-44.5582192 0.87499771 -41.52609095 0.87143685 -38.49395752 0.86743164 C-33.70376138 0.86160252 -28.9135972 0.86133417 -24.12339973 0.86568069 C-22.35123779 0.86667634 -20.57907417 0.86609244 -18.80691338 0.86384201 C-16.3797876 0.86130181 -13.9527537 0.86507714 -11.52563477 0.87060547 C-10.81611727 0.86857872 -10.10659977 0.86655197 -9.37558174 0.86446381 C-6.1047109 0.87857442 -3.12837615 0.99395902 0 2 C0 1.34 0 0.68 0 0 Z " fill="#181819" transform="translate(278,392)"/>
<path d="M0 0 C0.91007813 0.53367187 1.82015625 1.06734375 2.7578125 1.6171875 C6.16794706 3.72030185 9.06235434 6.2982237 12 9 C13.36898437 10.25296875 13.36898437 10.25296875 14.765625 11.53125 C31.6366573 27.41971689 41.63121592 47.95049754 48 70 C48 70.66 48 71.32 48 72 C36.0949419 75.04655726 24.14198837 77.85228994 12.15893555 80.57421875 C9.14613598 81.25940725 6.13458997 81.94993757 3.12304688 82.640625 C1.20059426 83.07844754 -0.72192913 83.51595947 -2.64453125 83.953125 C-3.98968559 84.26240936 -3.98968559 84.26240936 -5.36201477 84.57794189 C-6.1910582 84.76523865 -7.02010162 84.9525354 -7.87426758 85.14550781 C-8.60100174 85.31109192 -9.3277359 85.47667603 -10.07649231 85.64727783 C-12 86 -12 86 -15 86 C-15.33 86.99 -15.66 87.98 -16 89 C-16.35191406 87.91203125 -16.70382812 86.8240625 -17.06640625 85.703125 C-22.70202926 68.7401127 -29.48938268 55.30579985 -46 47 C-61.39322659 40.63977615 -77.65224974 42.14685507 -93 48 C-93.33 48.66 -93.66 49.32 -94 50 C-95.65826935 51.01386416 -97.32642201 52.01161015 -99 53 C-113.39990748 63.85278508 -120.59360751 79.55642829 -123.60742188 97.02880859 C-126.48648354 118.81872185 -124.00815209 142.88605926 -110.625 161 C-104.26217898 168.42565304 -97.25491691 174.52522975 -88 178 C-87.01 178 -86.02 178 -85 178 C-85 178.66 -85 179.32 -85 180 C-76.75 180.66 -68.5 181.32 -60 182 C-59.67 181.34 -59.34 180.68 -59 180 C-57.948125 179.938125 -56.89625 179.87625 -55.8125 179.8125 C-46.02299373 178.80709125 -35.4473084 172.20226255 -29 165 C-23.19048269 157.83169344 -18.99247998 149.01972119 -17 140 C-10.5076555 140.65894165 -4.35647342 142.01875023 1.96484375 143.6171875 C3.51396202 144.00392136 3.51396202 144.00392136 5.09437561 144.39846802 C7.26913491 144.94257113 9.44331597 145.48899016 11.61694336 146.03759766 C14.92214106 146.87112667 18.22944008 147.69587169 21.53710938 148.51953125 C23.65898542 149.05156013 25.78073454 149.58409555 27.90234375 150.1171875 C29.36993385 150.48298416 29.36993385 150.48298416 30.86717224 150.85617065 C36.67298545 152.32732496 42.34921983 154.01366515 48 156 C39.67876571 186.33841482 22.47625909 211.11166723 -4.85546875 227.2578125 C-38.08308767 245.66715168 -76.2030158 246.41047881 -112.10913086 236.42724609 C-114.16461574 235.88980192 -114.16461574 235.88980192 -117 236 C-117 235.34 -117 234.68 -117 234 C-117.639375 233.92652344 -118.27875 233.85304688 -118.9375 233.77734375 C-142.30515625 227.84601263 -163.97526814 206.85485439 -176.26025391 186.95898438 C-178.96903955 182.37537036 -181.53157415 177.71694449 -184 173 C-184.83724609 171.40478516 -184.83724609 171.40478516 -185.69140625 169.77734375 C-186.79888098 167.42685261 -187.45303626 165.51017289 -188 163 C-188.66421631 160.95753484 -189.331157 158.91595474 -190 156.875 C-191.59191358 151.80149124 -192.50406971 147.13372219 -192.7265625 141.828125 C-192.81679688 141.22484375 -192.90703125 140.6215625 -193 140 C-193.66 139.67 -194.32 139.34 -195 139 C-195.9743521 121.54865792 -196.03181481 104.44872541 -195 87 C-194.34 87 -193.68 87 -193 87 C-192.97873047 86.195625 -192.97873047 86.195625 -192.95703125 85.375 C-191.37610079 59.3964671 -175.66483921 35.10508443 -158 17 C-157.41992188 16.35804688 -156.83984375 15.71609375 -156.2421875 15.0546875 C-142.97094543 0.71641089 -123.56203654 -8.79934081 -105 -14 C-103.97003906 -14.29519531 -102.94007813 -14.59039062 -101.87890625 -14.89453125 C-67.17952755 -23.86774638 -30.41816925 -18.59084849 0 0 Z " fill="#181819" transform="translate(893,406)"/>
<path d="M0 0 C0.33 0.66 0.66 1.32 1 2 C1.33 1.34 1.66 0.68 2 0 C2.66 0 3.32 0 4 0 C4 0.66 4 1.32 4 2 C5.86785156 1.87431641 5.86785156 1.87431641 7.7734375 1.74609375 C28.71820165 0.59223296 48.7669528 1.49445126 70 2 C69.67 83.51 69.34 165.02 69 249 C45.9 249 22.8 249 -1 249 C-1.33 240.09 -1.66 231.18 -2 222 C-2.66 221.01 -3.32 220.02 -4 219 C-3.505 218.01 -3.505 218.01 -3 217 C-3.020625 216.071875 -3.04125 215.14375 -3.0625 214.1875 C-2.99879617 210.93860451 -2.37044193 208.91218911 -1 206 C-1.66 206 -2.32 206 -3 206 C-3.33 205.01 -3.66 204.02 -4 203 C-3.34 203 -2.68 203 -2 203 C-2.33 202.01 -2.66 201.02 -3 200 C-2.34 200 -1.68 200 -1 200 C-1.0721875 199.11957031 -1.144375 198.23914063 -1.21875 197.33203125 C-1.3115625 196.17058594 -1.404375 195.00914062 -1.5 193.8125 C-1.5928125 192.66394531 -1.685625 191.51539063 -1.78125 190.33203125 C-2 187 -2 187 -1.90625 184.26171875 C-1.81561192 181.71350366 -1.81561192 181.71350366 -4 179 C-3.01 179 -2.02 179 -1 179 C-1.16298584 177.85868118 -1.32597168 176.71736237 -1.49389648 175.54145813 C-2.04348473 171.12144492 -2.1278469 166.78572974 -2.09765625 162.33666992 C-2.09619598 161.51126709 -2.09473572 160.68586426 -2.0932312 159.83544922 C-2.08944966 158.0583606 -2.08335936 156.28127564 -2.07516479 154.50420189 C-2.06232671 151.69251627 -2.05586734 148.88087816 -2.05102539 146.06916809 C-2.03964164 140.10859058 -2.02037591 134.14805266 -2 128.1875 C-1.97639866 121.26120095 -1.95602864 114.33492388 -1.94406128 107.40859413 C-1.9375741 104.63712717 -1.9250711 101.86572842 -1.91235352 99.09428406 C-1.90872232 97.40164245 -1.90537043 95.70900022 -1.90234375 94.01635742 C-1.89717743 93.24489883 -1.89201111 92.47344025 -1.88668823 91.67860413 C-1.88637274 88.51110363 -1.99045401 86.02863796 -3 83 C-2.505 82.01 -2.505 82.01 -2 81 C-2.28112064 78.99199544 -2.61067967 76.98985949 -3 75 C-2.34 75 -1.68 75 -1 75 C-1 70.38 -1 65.76 -1 61 C-1.66 61 -2.32 61 -3 61 C-3 60.34 -3 59.68 -3 59 C-2.34 59 -1.68 59 -1 59 C-1.11371497 56.70774565 -1.24130964 54.41617612 -1.375 52.125 C-1.44460938 50.84882813 -1.51421875 49.57265625 -1.5859375 48.2578125 C-1.67241106 44.91938301 -1.67241106 44.91938301 -4 43 C-3.01 43 -2.02 43 -1 43 C-1.14151828 40.9163691 -1.28837936 38.83310062 -1.4375 36.75 C-1.51871094 35.58984375 -1.59992188 34.4296875 -1.68359375 33.234375 C-1.90649289 30.12133032 -1.90649289 30.12133032 -2.59765625 27.640625 C-2.73042969 27.09921875 -2.86320312 26.5578125 -3 26 C-2.67 25.67 -2.34 25.34 -2 25 C-1.93723718 23.39964181 -1.9405964 21.79658002 -1.97265625 20.1953125 C-1.98490234 19.21949219 -1.99714844 18.24367188 -2.00976562 17.23828125 C-2.04479077 15.17050059 -2.0838231 13.10278374 -2.12695312 11.03515625 C-2.13791016 10.05675781 -2.14886719 9.07835937 -2.16015625 8.0703125 C-2.17699463 7.17070801 -2.19383301 6.27110352 -2.21118164 5.34423828 C-2 3 -2 3 0 0 Z M-2 212 C-2 213.65 -2 215.3 -2 217 C-1.67 217 -1.34 217 -1 217 C-1 215.35 -1 213.7 -1 212 C-1.33 212 -1.66 212 -2 212 Z " fill="#171818" transform="translate(348,392)"/>
<path d="M0 0 C8.88252632 6.71883401 15.66869135 15.52542393 17.6875 26.75 C18.68387126 40.1867782 17.14789031 51.14256837 8.33984375 61.9453125 C-0.16244149 71.23149638 -10.0630945 76.8012947 -22.67578125 77.96875 C-34.23326917 78.41114188 -44.3043206 74.96482056 -53.3125 67.75 C-56.17811039 64.89373907 -58.76299572 61.8873599 -61.3125 58.75 C-61.9725 58.09 -62.6325 57.43 -63.3125 56.75 C-64.0580745 55.00282353 -64.73808776 53.22715073 -65.375 51.4375 C-65.71660156 50.49261719 -66.05820312 49.54773438 -66.41015625 48.57421875 C-69.59880125 38.59417401 -69.11456783 28.50069056 -65.3125 18.75 C-63.50227532 15.27919588 -61.48985932 12.00087631 -59.3125 8.75 C-58.6525 7.76 -57.9925 6.77 -57.3125 5.75 C-56.6525 5.75 -55.9925 5.75 -55.3125 5.75 C-55.3125 5.09 -55.3125 4.43 -55.3125 3.75 C-39.98434616 -10.29792428 -17.07591543 -11.23821543 0 0 Z " fill="#19191A" transform="translate(407.3125,290.25)"/>
<path d="M0 0 C0.33 0.66 0.66 1.32 1 2 C1.33 1.34 1.66 0.68 2 0 C2.66 0 3.32 0 4 0 C3.67 1.32 3.34 2.64 3 4 C2.01 4 1.02 4 0 4 C0 84.52 0 165.04 0 248 C22.44 248 44.88 248 68 248 C68 166.82 68 85.64 68 2 C68.99 2.495 68.99 2.495 70 3 C69.67 84.18 69.34 165.36 69 249 C45.9 249 22.8 249 -1 249 C-1.33 240.09 -1.66 231.18 -2 222 C-2.66 221.01 -3.32 220.02 -4 219 C-3.505 218.01 -3.505 218.01 -3 217 C-3.020625 216.071875 -3.04125 215.14375 -3.0625 214.1875 C-2.99879617 210.93860451 -2.37044193 208.91218911 -1 206 C-1.66 206 -2.32 206 -3 206 C-3.33 205.01 -3.66 204.02 -4 203 C-3.34 203 -2.68 203 -2 203 C-2.33 202.01 -2.66 201.02 -3 200 C-2.34 200 -1.68 200 -1 200 C-1.0721875 199.11957031 -1.144375 198.23914063 -1.21875 197.33203125 C-1.3115625 196.17058594 -1.404375 195.00914062 -1.5 193.8125 C-1.5928125 192.66394531 -1.685625 191.51539063 -1.78125 190.33203125 C-2 187 -2 187 -1.90625 184.26171875 C-1.81561192 181.71350366 -1.81561192 181.71350366 -4 179 C-3.01 179 -2.02 179 -1 179 C-1.16298584 177.85868118 -1.32597168 176.71736237 -1.49389648 175.54145813 C-2.04348473 171.12144492 -2.1278469 166.78572974 -2.09765625 162.33666992 C-2.09619598 161.51126709 -2.09473572 160.68586426 -2.0932312 159.83544922 C-2.08944966 158.0583606 -2.08335936 156.28127564 -2.07516479 154.50420189 C-2.06232671 151.69251627 -2.05586734 148.88087816 -2.05102539 146.06916809 C-2.03964164 140.10859058 -2.02037591 134.14805266 -2 128.1875 C-1.97639866 121.26120095 -1.95602864 114.33492388 -1.94406128 107.40859413 C-1.9375741 104.63712717 -1.9250711 101.86572842 -1.91235352 99.09428406 C-1.90872232 97.40164245 -1.90537043 95.70900022 -1.90234375 94.01635742 C-1.89717743 93.24489883 -1.89201111 92.47344025 -1.88668823 91.67860413 C-1.88637274 88.51110363 -1.99045401 86.02863796 -3 83 C-2.505 82.01 -2.505 82.01 -2 81 C-2.28112064 78.99199544 -2.61067967 76.98985949 -3 75 C-2.34 75 -1.68 75 -1 75 C-1 70.38 -1 65.76 -1 61 C-1.66 61 -2.32 61 -3 61 C-3 60.34 -3 59.68 -3 59 C-2.34 59 -1.68 59 -1 59 C-1.11371497 56.70774565 -1.24130964 54.41617612 -1.375 52.125 C-1.44460938 50.84882813 -1.51421875 49.57265625 -1.5859375 48.2578125 C-1.67241106 44.91938301 -1.67241106 44.91938301 -4 43 C-3.01 43 -2.02 43 -1 43 C-1.14151828 40.9163691 -1.28837936 38.83310062 -1.4375 36.75 C-1.51871094 35.58984375 -1.59992188 34.4296875 -1.68359375 33.234375 C-1.90649289 30.12133032 -1.90649289 30.12133032 -2.59765625 27.640625 C-2.73042969 27.09921875 -2.86320312 26.5578125 -3 26 C-2.67 25.67 -2.34 25.34 -2 25 C-1.93723718 23.39964181 -1.9405964 21.79658002 -1.97265625 20.1953125 C-1.98490234 19.21949219 -1.99714844 18.24367188 -2.00976562 17.23828125 C-2.04479077 15.17050059 -2.0838231 13.10278374 -2.12695312 11.03515625 C-2.13791016 10.05675781 -2.14886719 9.07835937 -2.16015625 8.0703125 C-2.17699463 7.17070801 -2.19383301 6.27110352 -2.21118164 5.34423828 C-2 3 -2 3 0 0 Z M-2 212 C-2 213.65 -2 215.3 -2 217 C-1.67 217 -1.34 217 -1 217 C-1 215.35 -1 213.7 -1 212 C-1.33 212 -1.66 212 -2 212 Z " fill="#343435" transform="translate(348,392)"/>
<path d="M0 0 C0.33 0 0.66 0 1 0 C3.38396712 8.41082166 3.26881136 16.68638095 3.22705078 25.35180664 C3.22648589 26.99843336 3.22680475 28.64506058 3.22793579 30.29168701 C3.22850727 34.739404 3.21678629 39.18701209 3.20278788 43.63470387 C3.1902462 48.29116714 3.18910731 52.94763317 3.18673706 57.60411072 C3.18053237 66.41178601 3.16413527 75.21941138 3.14403808 84.02706474 C3.12164756 94.05851451 3.11067773 104.08996673 3.10064721 114.12143528 C3.07976812 134.74765754 3.04310455 155.37381139 3 176 C-20.1 176 -43.2 176 -67 176 C-66.67 174.02 -66.34 172.04 -66 170 C-65.34 171.32 -64.68 172.64 -64 174 C-42.55 174 -21.1 174 1 174 C0.67 116.58 0.34 59.16 0 0 Z " fill="#262525" transform="translate(672,465)"/>
<path d="M0 0 C0.66 0 1.32 0 2 0 C2.02351805 16.55266617 2.04107093 33.1053268 2.05181217 49.65800571 C2.05693543 57.34630967 2.06390094 65.03460316 2.07543945 72.72290039 C2.08550921 79.43582716 2.09188217 86.14874633 2.09408849 92.86168045 C2.09537508 96.40537613 2.0983269 99.94905011 2.10573006 103.49273872 C2.13896646 120.02496317 1.89936658 136.49049504 1 153 C0.34 153 -0.32 153 -1 153 C-1.02335713 133.78955262 -1.04099303 114.57910812 -1.05181217 95.36864948 C-1.05696914 86.44896787 -1.06400045 77.52929509 -1.07543945 68.60961914 C-1.08540457 60.83551931 -1.09185779 53.06142588 -1.09408849 45.28731984 C-1.09539249 41.17075414 -1.09845872 37.05420671 -1.10573006 32.93764687 C-1.11251907 29.06274178 -1.11461107 25.18786251 -1.11310768 21.31295204 C-1.11338271 19.89116272 -1.11537074 18.46937253 -1.11920547 17.04758835 C-1.12418763 15.10504023 -1.1223871 13.16247826 -1.12025452 11.21992493 C-1.12117631 10.133131 -1.1220981 9.04633707 -1.12304783 7.92660999 C-1.0072893 5.17337106 -0.62491423 2.67897609 0 0 Z " fill="#0A0A0B" transform="translate(515,486)"/>
<path d="M0 0 C2 2 2 2 2.24609566 4.54184914 C2.24425207 5.6240341 2.24240849 6.70621906 2.24050903 7.82119751 C2.24325836 9.06082748 2.24600769 10.30045746 2.24884033 11.57765198 C2.24176158 12.95883274 2.23449196 14.34001254 2.22705078 15.72119141 C2.22648688 17.16974378 2.22680281 18.61829672 2.22793579 20.06684875 C2.22851114 24.00673707 2.21672748 27.94650435 2.20278788 31.88636446 C2.19031078 36.00100884 2.18911241 40.11565579 2.18673706 44.23031616 C2.18051338 52.02533081 2.1640906 59.82028956 2.14403808 67.61527956 C2.12170664 76.48818433 2.1106926 85.36109174 2.10064721 94.23401761 C2.07972512 112.4893768 2.04453195 130.74468391 2 149 C-0.71579469 146.28420531 -0.30618518 144.76083379 -0.40966797 140.95361328 C-0.44778595 139.65954559 -0.48590393 138.36547791 -0.525177 137.03219604 C-0.5564933 135.58658205 -0.58714027 134.14095343 -0.6171875 132.6953125 C-0.65493119 131.17668239 -0.69284857 129.65805658 -0.73092651 128.13943481 C-1.15500252 110.00563 -1.15167292 91.86624918 -1.13037109 73.72851562 C-1.12463439 68.82557731 -1.12808177 63.92269285 -1.13382339 59.01975632 C-1.15326065 39.32428082 -1.13723888 19.66982868 0 0 Z " fill="#050506" transform="translate(606,488)"/>
<path d="M0 0 C1.7228829 0.10495025 3.44977452 0.14657844 5.17581177 0.15821838 C6.8206958 0.17290161 6.8206958 0.17290161 8.49880981 0.18788147 C9.70721527 0.19363693 10.91562073 0.1993924 12.16064453 0.20532227 C13.42890076 0.21522186 14.69715698 0.22512146 16.00384521 0.23532104 C19.4870665 0.26239821 22.97030137 0.28339251 26.45356989 0.30332303 C30.09178307 0.32516527 33.72995424 0.35256256 37.36813354 0.37937927 C44.25999121 0.42933003 51.15187216 0.47426 58.04377544 0.51740164 C65.88892394 0.56675367 73.73403029 0.62167933 81.57913804 0.67708123 C97.71938652 0.79093785 113.85967361 0.89776886 130 1 C130 1.33 130 1.66 130 2 C62.35 2.33 -5.3 2.66 -75 3 C-74.67 2.01 -74.34 1.02 -74 0 C-64.64699534 -0.15368491 -55.2939246 -0.30186658 -45.94072151 -0.4429636 C-41.5979649 -0.50865015 -37.25525555 -0.57625389 -32.91259766 -0.64819336 C-28.72407828 -0.71750963 -24.53550967 -0.7818496 -20.34685898 -0.84269524 C-18.74639979 -0.86682729 -17.1459669 -0.89277233 -15.54556656 -0.92053413 C-13.30922817 -0.95902196 -11.07288423 -0.99114436 -8.83642578 -1.02172852 C-7.56179474 -1.04171402 -6.2871637 -1.06169952 -4.97390747 -1.08229065 C-2 -1 -2 -1 0 0 Z " fill="#070707" transform="translate(183,394)"/>
<path d="M0 0 C0.33 0 0.66 0 1 0 C1 9.24 1 18.48 1 28 C38.29 28 75.58 28 114 28 C114 28.33 114 28.66 114 29 C76.05 29 38.1 29 -1 29 C-2.07604562 25.77186315 -2.04855502 23.65595099 -1.9140625 20.2734375 C-1.87023437 19.1596875 -1.82640625 18.0459375 -1.78125 16.8984375 C-1.7296875 15.73570312 -1.678125 14.57296875 -1.625 13.375 C-1.58117187 12.20453125 -1.53734375 11.0340625 -1.4921875 9.828125 C-1.12887788 1.12887788 -1.12887788 1.12887788 0 0 Z " fill="#010101" transform="translate(111,423)"/>
<path d="M0 0 C-0.33 1.32 -0.66 2.64 -1 4 C-1 3.34 -1 2.68 -1 2 C-22.12 2 -43.24 2 -65 2 C-64.67 1.34 -64.34 0.68 -64 0 C-42.65502512 -1.50970987 -21.36312906 -0.67675741 0 0 Z " fill="#0D0C0D" transform="translate(416,394)"/>
<path d="M0 0 C6.18896194 -0.02492457 12.37789394 -0.04296528 18.56689453 -0.05493164 C20.66748565 -0.05992614 22.76807336 -0.06672404 24.86865234 -0.07543945 C47.26735811 -0.16597155 47.26735811 -0.16597155 57 1 C53.74785231 2.92922699 51.34722668 3.24461321 47.58886719 3.22705078 C46.50804871 3.22689972 45.42723022 3.22674866 44.31365967 3.22659302 C43.15312073 3.21627045 41.99258179 3.20594788 40.796875 3.1953125 C39.00748505 3.19106766 39.00748505 3.19106766 37.1819458 3.18673706 C33.37119524 3.17554053 29.56067955 3.15043653 25.75 3.125 C23.16667006 3.11496954 20.58333644 3.1058438 18 3.09765625 C11.66658651 3.07560289 5.33331003 3.04213035 -1 3 C-0.67 2.01 -0.34 1.02 0 0 Z " fill="#0F0F10" transform="translate(260,582)"/>
<path d="M0 0 C0.33 0 0.66 0 1 0 C1 9.24 1 18.48 1 28 C0.34 28.33 -0.32 28.66 -1 29 C-2.07604562 25.77186315 -2.04855502 23.65595099 -1.9140625 20.2734375 C-1.87023437 19.1596875 -1.82640625 18.0459375 -1.78125 16.8984375 C-1.7296875 15.73570312 -1.678125 14.57296875 -1.625 13.375 C-1.58117187 12.20453125 -1.53734375 11.0340625 -1.4921875 9.828125 C-1.12887788 1.12887788 -1.12887788 1.12887788 0 0 Z " fill="#070808" transform="translate(111,423)"/>
<path d="M0 0 C-5.59452712 3.72968475 -12.44845015 3.46874649 -19 3 C-22.125 2 -22.125 2 -24 1 C-24 0.67 -24 0.34 -24 0 C-20.9378174 -0.19533059 -17.87553679 -0.38153284 -14.8125 -0.5625 C-13.51602539 -0.64661133 -13.51602539 -0.64661133 -12.19335938 -0.73242188 C-7.95250921 -0.9761489 -4.14202181 -1.15770796 0 0 Z " fill="#1F1F1F" transform="translate(396,365)"/>
<path d="M0 0 C0 0.33 0 0.66 0 1 C-3.93697015 1.19990833 -7.87456912 1.38259453 -11.8125 1.5625 C-12.91271484 1.61857422 -14.01292969 1.67464844 -15.14648438 1.73242188 C-22.19771451 2.04442321 -28.99143042 1.8446925 -36 1 C-36 0.67 -36 0.34 -36 0 C-24.11101475 -1.60044032 -11.88898525 -1.60044032 0 0 Z " fill="#252525" transform="translate(842,647)"/>
<path d="M0 0 C0.33 0 0.66 0 1 0 C1.0292483 3.20831391 1.04688189 6.41659307 1.0625 9.625 C1.07087891 10.52863281 1.07925781 11.43226563 1.08789062 12.36328125 C1.10491895 17.02904289 0.96829423 21.41013285 0 26 C-0.66 25.67 -1.32 25.34 -2 25 C-2.05786668 21.20839703 -2.09355054 17.41690689 -2.125 13.625 C-2.14175781 12.54476562 -2.15851563 11.46453125 -2.17578125 10.3515625 C-2.18222656 9.3203125 -2.18867187 8.2890625 -2.1953125 7.2265625 C-2.20578613 6.27346191 -2.21625977 5.32036133 -2.22705078 4.33837891 C-2 2 -2 2 0 0 Z " fill="#232322" transform="translate(109,606)"/>
<path d="M0 0 C-0.33 0.66 -0.66 1.32 -1 2 C-8.79694845 4.5108817 -15.93186584 3.84927728 -24 3 C-24 2.67 -24 2.34 -24 2 C-19.71 2 -15.42 2 -11 2 C-10.67 1.34 -10.34 0.68 -10 0 C-2.58823529 -1.29411765 -2.58823529 -1.29411765 0 0 Z " fill="#2D2D2E" transform="translate(844,586)"/>
<path d="M0 0 C0.33 0 0.66 0 1 0 C1.22786458 2.05078125 1.45572917 4.1015625 1.68359375 6.15234375 C1.81886614 8.01140229 1.81886614 8.01140229 3 9 C3.02172852 10.76586914 3.02172852 10.76586914 2.87890625 13.03515625 C2.80639648 14.24848633 2.80639648 14.24848633 2.73242188 15.48632812 C2.67634766 16.33646484 2.62027344 17.18660156 2.5625 18.0625 C2.51029297 18.91650391 2.45808594 19.77050781 2.40429688 20.65039062 C2.27421239 22.76721995 2.13770029 24.88365244 2 27 C1.67 27 1.34 27 1 27 C0.24258075 17.97859571 -0.13534286 9.05293337 0 0 Z " fill="#363536" transform="translate(697,512)"/>
<path d="M0 0 C4.20934535 6.31401802 4.27967756 14.58854456 4 22 C3.67 22 3.34 22 3 22 C3 20.02 3 18.04 3 16 C2.34 16 1.68 16 1 16 C0.08342019 10.61509359 -0.11138159 5.45769811 0 0 Z " fill="#252626" transform="translate(670,449)"/>
<path d="M0 0 C1.77438475 2.66157713 3.01105754 5.06841784 4.25 8 C4.62640625 8.86625 5.0028125 9.7325 5.390625 10.625 C5.59171875 11.40875 5.7928125 12.1925 6 13 C5.01 14.485 5.01 14.485 4 16 C3.3490741 14.75264433 2.70448331 13.50198168 2.0625 12.25 C1.70285156 11.55390625 1.34320312 10.8578125 0.97265625 10.140625 C-0.73098416 6.39124772 -1.27321016 3.96109827 0 0 Z " fill="#201F20" transform="translate(706,565)"/>
<path d="M0 0 C0.66 0 1.32 0 2 0 C1.67 5.28 1.34 10.56 1 16 C0.34 16 -0.32 16 -1 16 C-1.02725341 14.2709226 -1.04650987 12.54171824 -1.0625 10.8125 C-1.07410156 9.84957031 -1.08570313 8.88664062 -1.09765625 7.89453125 C-1.00486622 5.14423487 -0.62111685 2.67520409 0 0 Z " fill="#232323" transform="translate(340,315)"/>
<path d="M0 0 C0.33 0.66 0.66 1.32 1 2 C1.33 1.34 1.66 0.68 2 0 C2.66 0 3.32 0 4 0 C3.67 1.32 3.34 2.64 3 4 C2.01 4 1.02 4 0 4 C0 10.27 0 16.54 0 23 C-0.33 23 -0.66 23 -1 23 C-1.22587773 19.73012965 -1.42766605 16.45920719 -1.625 13.1875 C-1.68945312 12.25873047 -1.75390625 11.32996094 -1.8203125 10.37304688 C-1.871875 9.48037109 -1.9234375 8.58769531 -1.9765625 7.66796875 C-2.02893066 6.84578857 -2.08129883 6.0236084 -2.13525391 5.17651367 C-2 3 -2 3 0 0 Z " fill="#343232" transform="translate(348,392)"/>
<path d="M0 0 C5.31027254 1.46032495 9.46330032 3.98320986 14 7 C13.01 7.495 13.01 7.495 12 8 C11.67 8.66 11.34 9.32 11 10 C10.649375 9.5875 10.29875 9.175 9.9375 8.75 C8.11608901 7.10485459 6.52320121 6.1468836 4.375 5 C1 3 1 3 0 0 Z " fill="#212020" transform="translate(626,396)"/>
<path d="M0 0 C3.87511727 0.54984772 5.59576506 2.27555331 8.25 5.0625 C8.95640625 5.79597656 9.6628125 6.52945313 10.390625 7.28515625 C10.92171875 7.85105469 11.4528125 8.41695312 12 9 C11.67 9.99 11.34 10.98 11 12 C9.16364422 10.19047409 7.33083792 8.37759362 5.5 6.5625 C4.97535156 6.04623047 4.45070313 5.52996094 3.91015625 4.99804688 C2.58775448 3.68423213 1.29164432 2.34406495 0 1 C0 0.67 0 0.34 0 0 Z " fill="#202021" transform="translate(728,607)"/>
<path d="M0 0 C0.66 0.33 1.32 0.66 2 1 C-1.84919283 5.33034194 -5.72289646 7.6560756 -11 10 C-11.66 9.34 -12.32 8.68 -13 8 C-12.22914063 7.59007812 -11.45828125 7.18015625 -10.6640625 6.7578125 C-9.66117188 6.21898437 -8.65828125 5.68015625 -7.625 5.125 C-6.62726562 4.59132813 -5.62953125 4.05765625 -4.6015625 3.5078125 C-1.94651605 2.1179862 -1.94651605 2.1179862 0 0 Z " fill="#202020" transform="translate(858,576)"/>
<path d="M0 0 C5.72398793 0.74660712 11.34853777 1.82877141 17 3 C17 3.33 17 3.66 17 4 C11.47098776 5.17638558 6.31097302 5.23379981 1 3 C0.67 2.01 0.34 1.02 0 0 Z " fill="#282829" transform="translate(920,557)"/>
<path d="M0 0 C3 1 3 1 4.38671875 3.28515625 C4.81597656 4.20167969 5.24523437 5.11820312 5.6875 6.0625 C6.34298828 7.44115234 6.34298828 7.44115234 7.01171875 8.84765625 C7.33785156 9.55792969 7.66398438 10.26820313 8 11 C7.34 11.66 6.68 12.32 6 13 C2.535 7.06 2.535 7.06 -1 1 C-0.67 0.67 -0.34 0.34 0 0 Z " fill="#1F1F1F" transform="translate(864,463)"/>
<path d="M0 0 C0.66 0.99 1.32 1.98 2 3 C-0.64 5.31 -3.28 7.62 -6 10 C-6.66 9.67 -7.32 9.34 -8 9 C-5.36 6.03 -2.72 3.06 0 0 Z " fill="#1E1E1F" transform="translate(187,496)"/>
<path d="M0 0 C2.72369437 2.72369437 2.85659123 5.29744626 3 9 C2.79209774 12.68283998 2.43055261 16.33699085 2 20 C1.67 20 1.34 20 1 20 C0.67 13.4 0.34 6.8 0 0 Z " fill="#2A2A2A" transform="translate(604,479)"/>
<path d="M0 0 C-0.33 1.32 -0.66 2.64 -1 4 C-2.32 4 -3.64 4 -5 4 C-5 4.66 -5 5.32 -5 6 C-6.32 6.33 -7.64 6.66 -9 7 C-9.33 6.01 -9.66 5.02 -10 4 C-8.71086513 3.32845067 -7.41859796 2.66291141 -6.125 2 C-5.40570312 1.62875 -4.68640625 1.2575 -3.9453125 0.875 C-2 0 -2 0 0 0 Z " fill="#1E1E20" transform="translate(771,399)"/>
<path d="M0 0 C0.99 0.66 1.98 1.32 3 2 C2.030625 2.28875 1.06125 2.5775 0.0625 2.875 C-3.10664203 3.64214682 -3.10664203 3.64214682 -4 6 C-5.64363134 6.72159424 -7.31050386 7.39351421 -9 8 C-9 7.01 -9 6.02 -9 5 C-6.03 3.35 -3.06 1.7 0 0 Z " fill="#201F20" transform="translate(803,450)"/>
<path d="M0 0 C0.99 0.33 1.98 0.66 3 1 C0.03 3.97 -2.94 6.94 -6 10 C-6.33 9.01 -6.66 8.02 -7 7 C-4.69 4.69 -2.38 2.38 0 0 Z " fill="#121213" transform="translate(739,419)"/>
<path d="M0 0 C2.12508244 3.18762365 2.5020163 5.26512223 3 9 C1.02 9.33 -0.96 9.66 -3 10 C-3.33 9.34 -3.66 8.68 -4 8 C-2.68 8 -1.36 8 0 8 C-0.185625 7.236875 -0.37125 6.47375 -0.5625 5.6875 C-1 3 -1 3 0 0 Z " fill="#222223" transform="translate(938,469)"/>
<path d="M0 0 C5.15464734 0.48324819 8.81550319 3.18610761 13 6 C12.01 6.495 12.01 6.495 11 7 C8.65234375 6.07421875 8.65234375 6.07421875 5.9375 4.6875 C5.03902344 4.23761719 4.14054688 3.78773438 3.21484375 3.32421875 C1 2 1 2 0 0 Z " fill="#131313" transform="translate(845,450)"/>
<path d="M0 0 C0.33 0 0.66 0 1 0 C1.08121924 1.60332791 1.13929134 3.20784026 1.1875 4.8125 C1.23970703 6.15248047 1.23970703 6.15248047 1.29296875 7.51953125 C0.95081002 10.41647515 0.24606427 11.22555028 -2 13 C-2.05391993 11.20866022 -2.09275571 9.41686101 -2.125 7.625 C-2.14820312 6.62726562 -2.17140625 5.62953125 -2.1953125 4.6015625 C-2 2 -2 2 0 0 Z " fill="#2D2D2D" transform="translate(109,606)"/>
<path d="M0 0 C2.32590854 3.63423209 2.16265833 6.77088331 2 11 C1.34 11 0.68 11 0 11 C0 9.35 0 7.7 0 6 C-0.66 5.67 -1.32 5.34 -2 5 C-1.34 3.35 -0.68 1.7 0 0 Z " fill="#202020" transform="translate(700,540)"/>
<path d="M0 0 C0.99 0 1.98 0 3 0 C3 0.66 3 1.32 3 2 C3.99 2.33 4.98 2.66 6 3 C2.37 3.66 -1.26 4.32 -5 5 C-5 4.34 -5 3.68 -5 3 C-3.35 2.34 -1.7 1.68 0 1 C0 0.67 0 0.34 0 0 Z " fill="#222122" transform="translate(910,481)"/>
<path d="M0 0 C1.98 0.495 1.98 0.495 4 1 C3.01 4.3 2.02 7.6 1 11 C0.34 9.68 -0.32 8.36 -1 7 C-0.67 6.01 -0.34 5.02 0 4 C0.66 4.33 1.32 4.66 2 5 C2 3.68 2 2.36 2 1 C1.34 0.67 0.68 0.34 0 0 Z " fill="#303131" transform="translate(937,561)"/>
<path d="M0 0 C0.66 0.33 1.32 0.66 2 1 C0.32482761 4.53647504 -0.49280817 5.7911563 -4.1875 7.3125 C-5.5796875 7.6528125 -5.5796875 7.6528125 -7 8 C-6.02133662 6.85373678 -5.04205413 5.70800212 -4.0625 4.5625 C-3.51722656 3.92441406 -2.97195313 3.28632813 -2.41015625 2.62890625 C-1.63204305 1.73008851 -0.84063472 0.84063472 0 0 Z " fill="#202020" transform="translate(527,408)"/>
<path d="M0 0 C0.66 0.33 1.32 0.66 2 1 C0.875 3.5 0.875 3.5 -1 6 C-4.1875 6.3125 -4.1875 6.3125 -7 6 C-4.74259377 3.66475218 -2.7194239 1.81294927 0 0 Z " fill="#232324" transform="translate(759,404)"/>
<path d="M0 0 C0.99 0.33 1.98 0.66 3 1 C1.515 3.475 1.515 3.475 0 6 C-1.32 5.34 -2.64 4.68 -4 4 C-2.68 2.68 -1.36 1.36 0 0 Z " fill="#1F1F20" transform="translate(215,463)"/>
<path d="M0 0 C1.14926266 0.95421808 2.29430541 1.91352045 3.4375 2.875 C4.07558594 3.40867187 4.71367188 3.94234375 5.37109375 4.4921875 C7 6 7 6 8 8 C4.21479387 7.45925627 2.40822445 5.92427254 0 3 C0 2.01 0 1.02 0 0 Z " fill="#202021" transform="translate(905,416)"/>
<path d="M0 0 C0 0.66 0 1.32 0 2 C-6.93 1.505 -6.93 1.505 -14 1 C-14 0.67 -14 0.34 -14 0 C-12.41773035 -0.19627391 -10.83410729 -0.38165538 -9.25 -0.5625 C-8.36828125 -0.66691406 -7.4865625 -0.77132812 -6.578125 -0.87890625 C-4.11567549 -0.99456676 -2.33461936 -0.73638695 0 0 Z " fill="#303030" transform="translate(820,647)"/>
<path d="M0 0 C0.928125 0.433125 1.85625 0.86625 2.8125 1.3125 C3.1425 2.3025 3.4725 3.2925 3.8125 4.3125 C0.1825 3.3225 -3.4475 2.3325 -7.1875 1.3125 C-3.1875 -0.6875 -3.1875 -0.6875 0 0 Z " fill="#282828" transform="translate(579.1875,448.6875)"/>
<path d="M0 0 C2.50298434 2.93828597 3.46930939 5.17902761 4 9 C3.34 9 2.68 9 2 9 C0.93347808 6.69631264 -0.06421005 4.35981813 -1 2 C-0.67 1.34 -0.34 0.68 0 0 Z " fill="#202020" transform="translate(662,429)"/>
<path d="M0 0 C0.66 0.33 1.32 0.66 2 1 C2 1.66 2 2.32 2 3 C1.34 3 0.68 3 0 3 C-0.33 3.99 -0.66 4.98 -1 6 C-2.32 5.34 -3.64 4.68 -5 4 C-3.35 2.68 -1.7 1.36 0 0 Z " fill="#212222" transform="translate(357,290)"/>
<path d="M0 0 C2 1 2 1 3 3 C0.36 3.66 -2.28 4.32 -5 5 C-4 2 -4 2 -2.0625 0.75 C-1.381875 0.5025 -0.70125 0.255 0 0 Z " fill="#222122" transform="translate(862,640)"/>
<path d="M0 0 C-4.75 3 -4.75 3 -7 3 C-7.33 2.01 -7.66 1.02 -8 0 C-4.94736336 -0.98120464 -3.05263664 -0.98120464 0 0 Z " fill="#222223" transform="translate(890,632)"/>
<path d="M0 0 C1.125 1.625 1.125 1.625 2 4 C1.125 7.25 1.125 7.25 0 10 C-0.33 10 -0.66 10 -1 10 C-1.125 2.25 -1.125 2.25 0 0 Z " fill="#2F2F2F" transform="translate(108,589)"/>
<path d="M0 0 C0.99 0.33 1.98 0.66 3 1 C3 1.66 3 2.32 3 3 C3.99 3.66 4.98 4.32 6 5 C5.01 5 4.02 5 3 5 C2.67 5.99 2.34 6.98 2 8 C0.74335022 5.09399739 0 3.20395416 0 0 Z " fill="#313030" transform="translate(875,487)"/>
<path d="M0 0 C-1.125 1.5 -1.125 1.5 -3 3 C-6.1875 3.1875 -6.1875 3.1875 -9 3 C-9 2.34 -9 1.68 -9 1 C-6.04335481 -0.4783226 -3.25770263 -0.06032783 0 0 Z " fill="#212122" transform="translate(606,389)"/>
<path d="M0 0 C1.98 1.65 3.96 3.3 6 5 C5.67 5.66 5.34 6.32 5 7 C4.34 7 3.68 7 3 7 C0.70351351 4.4385343 0 3.52032428 0 0 Z " fill="#252525" transform="translate(409,292)"/>
<path d="M0 0 C0.33 0 0.66 0 1 0 C1 2.31 1 4.62 1 7 C0.67 7 0.34 7 0 7 C0 4.69 0 2.38 0 0 Z " fill="#444343" transform="translate(345,410)"/>
<path d="M0 0 C0.66 0 1.32 0 2 0 C2 1.65 2 3.3 2 5 C0 1.125 0 1.125 0 0 Z " fill="#424140" transform="translate(344,547)"/>
<path d="M0 0 C0.33 0 0.66 0 1 0 C1 1.98 1 3.96 1 6 C0.67 6 0.34 6 0 6 C0 4.02 0 2.04 0 0 Z " fill="#424141" transform="translate(345,459)"/>
<path d="M0 0 C0.33 0 0.66 0 1 0 C1 1.65 1 3.3 1 5 C0.67 5 0.34 5 0 5 C0 3.35 0 1.7 0 0 Z " fill="#434141" transform="translate(345,531)"/>
<path d="M0 0 C0.33 0 0.66 0 1 0 C1 1.65 1 3.3 1 5 C0.67 5 0.34 5 0 5 C0 3.35 0 1.7 0 0 Z " fill="#484746" transform="translate(337,322)"/>
<path d="M0 0 C1 4 1 4 1 4 Z " fill="#424140" transform="translate(345,563)"/>
<path d="M0 0 C1 4 1 4 1 4 Z " fill="#434141" transform="translate(676,548)"/>
<path d="M0 0 C1 4 1 4 1 4 Z " fill="#424140" transform="translate(698,547)"/>
<path d="M0 0 C0.66 0 1.32 0 2 0 C1.67 0.99 1.34 1.98 1 3 C0.67 2.01 0.34 1.02 0 0 Z " fill="#424140" transform="translate(344,491)"/>
<path d="M0 0 C3 1 3 1 3 1 Z " fill="#494747" transform="translate(785,645)"/>
<path d="M0 0 C0.66 0 1.32 0 2 0 C1.67 0.66 1.34 1.32 1 2 C0.67 1.34 0.34 0.68 0 0 Z " fill="#434140" transform="translate(344,587)"/>
<path d="M0 0 C3 1 3 1 3 1 Z " fill="#434342" transform="translate(834,585)"/>
<path d="M0 0 C0.66 0 1.32 0 2 0 C1.67 0.66 1.34 1.32 1 2 C0.67 1.34 0.34 0.68 0 0 Z " fill="#414040" transform="translate(344,579)"/>
<path d="" fill="#424142" transform="translate(0,0)"/>
<path d="" fill="#414142" transform="translate(0,0)"/>
<path d="" fill="#444042" transform="translate(0,0)"/>
<path d="" fill="#434141" transform="translate(0,0)"/>
<path d="" fill="#434241" transform="translate(0,0)"/>
<path d="" fill="#424243" transform="translate(0,0)"/>
<path d="M0 0 C2 1 2 1 2 1 Z " fill="#494849" transform="translate(752,630)"/>
<path d="" fill="#454443" transform="translate(0,0)"/>
<path d="M0 0 C2 1 2 1 2 1 Z " fill="#474646" transform="translate(732,614)"/>
<path d="" fill="#434242" transform="translate(0,0)"/>
<path d="" fill="#454443" transform="translate(0,0)"/>
<path d="M0 0 C2 1 2 1 2 1 Z " fill="#414040" transform="translate(840,584)"/>
<path d="M0 0 C2 1 2 1 2 1 Z " fill="#423F42" transform="translate(676,575)"/>
<path d="" fill="#434142" transform="translate(0,0)"/>
<path d="" fill="#434242" transform="translate(0,0)"/>
<path d="" fill="#424140" transform="translate(0,0)"/>
<path d="" fill="#424241" transform="translate(0,0)"/>
<path d="" fill="#444242" transform="translate(0,0)"/>
<path d="" fill="#434141" transform="translate(0,0)"/>
<path d="" fill="#424141" transform="translate(0,0)"/>
<path d="" fill="#434343" transform="translate(0,0)"/>
<path d="" fill="#444243" transform="translate(0,0)"/>
<path d="" fill="#424140" transform="translate(0,0)"/>
<path d="" fill="#434242" transform="translate(0,0)"/>
<path d="" fill="#414040" transform="translate(0,0)"/>
<path d="" fill="#434242" transform="translate(0,0)"/>
<path d="" fill="#434141" transform="translate(0,0)"/>
<path d="" fill="#424141" transform="translate(0,0)"/>
<path d="M0 0 C2 1 2 1 2 1 Z " fill="#4B494B" transform="translate(913,485)"/>
<path d="" fill="#4C4C4D" transform="translate(0,0)"/>
<path d="" fill="#434140" transform="translate(0,0)"/>
<path d="" fill="#424142" transform="translate(0,0)"/>
<path d="" fill="#434241" transform="translate(0,0)"/>
<path d="" fill="#424142" transform="translate(0,0)"/>
<path d="" fill="#444342" transform="translate(0,0)"/>
<path d="" fill="#434243" transform="translate(0,0)"/>
<path d="" fill="#444342" transform="translate(0,0)"/>
<path d="M0 0 C2 1 2 1 2 1 Z " fill="#4F4E4F" transform="translate(369,282)"/>
<path d="" fill="#504F4F" transform="translate(0,0)"/>
<path d="" fill="#5E5F5E" transform="translate(0,0)"/>
<path d="" fill="#494848" transform="translate(0,0)"/>
<path d="" fill="#464445" transform="translate(0,0)"/>
<path d="" fill="#4B4745" transform="translate(0,0)"/>
<path d="" fill="#464342" transform="translate(0,0)"/>
<path d="" fill="#444443" transform="translate(0,0)"/>
<path d="" fill="#454444" transform="translate(0,0)"/>
<path d="" fill="#474344" transform="translate(0,0)"/>
<path d="" fill="#484848" transform="translate(0,0)"/>
<path d="" fill="#5B5B5C" transform="translate(0,0)"/>
<path d="" fill="#474546" transform="translate(0,0)"/>
<path d="" fill="#4D4D4D" transform="translate(0,0)"/>
<path d="" fill="#454344" transform="translate(0,0)"/>
<path d="" fill="#464444" transform="translate(0,0)"/>
<path d="" fill="#484848" transform="translate(0,0)"/>
<path d="" fill="#434242" transform="translate(0,0)"/>
<path d="" fill="#444342" transform="translate(0,0)"/>
<path d="" fill="#484645" transform="translate(0,0)"/>
<path d="" fill="#444342" transform="translate(0,0)"/>
<path d="" fill="#434244" transform="translate(0,0)"/>
<path d="" fill="#444545" transform="translate(0,0)"/>
<path d="" fill="#424142" transform="translate(0,0)"/>
<path d="" fill="#464747" transform="translate(0,0)"/>
<path d="" fill="#444342" transform="translate(0,0)"/>
<path d="" fill="#484747" transform="translate(0,0)"/>
<path d="" fill="#444342" transform="translate(0,0)"/>
<path d="" fill="#434242" transform="translate(0,0)"/>
<path d="" fill="#434243" transform="translate(0,0)"/>
<path d="" fill="#434242" transform="translate(0,0)"/>
<path d="" fill="#444345" transform="translate(0,0)"/>
<path d="" fill="#424343" transform="translate(0,0)"/>
<path d="" fill="#454442" transform="translate(0,0)"/>
<path d="" fill="#4A4A46" transform="translate(0,0)"/>
<path d="" fill="#424141" transform="translate(0,0)"/>
<path d="" fill="#434240" transform="translate(0,0)"/>
<path d="" fill="#434243" transform="translate(0,0)"/>
<path d="" fill="#494948" transform="translate(0,0)"/>
<path d="" fill="#434042" transform="translate(0,0)"/>
<path d="" fill="#444242" transform="translate(0,0)"/>
<path d="" fill="#424041" transform="translate(0,0)"/>
<path d="" fill="#424343" transform="translate(0,0)"/>
<path d="" fill="#434141" transform="translate(0,0)"/>
<path d="" fill="#454242" transform="translate(0,0)"/>
<path d="" fill="#444343" transform="translate(0,0)"/>
<path d="" fill="#403F40" transform="translate(0,0)"/>
<path d="" fill="#454546" transform="translate(0,0)"/>
<path d="" fill="#3F3F40" transform="translate(0,0)"/>
<path d="" fill="#424141" transform="translate(0,0)"/>
<path d="" fill="#434142" transform="translate(0,0)"/>
<path d="" fill="#474547" transform="translate(0,0)"/>
<path d="" fill="#434040" transform="translate(0,0)"/>
<path d="" fill="#464547" transform="translate(0,0)"/>
<path d="" fill="#424143" transform="translate(0,0)"/>
<path d="" fill="#433F41" transform="translate(0,0)"/>
<path d="" fill="#464646" transform="translate(0,0)"/>
<path d="" fill="#414342" transform="translate(0,0)"/>
<path d="" fill="#414141" transform="translate(0,0)"/>
<path d="" fill="#474646" transform="translate(0,0)"/>
<path d="" fill="#40403F" transform="translate(0,0)"/>
<path d="" fill="#444344" transform="translate(0,0)"/>
<path d="" fill="#494746" transform="translate(0,0)"/>
<path d="" fill="#474647" transform="translate(0,0)"/>
<path d="" fill="#444141" transform="translate(0,0)"/>
<path d="" fill="#424140" transform="translate(0,0)"/>
<path d="" fill="#424040" transform="translate(0,0)"/>
<path d="" fill="#434040" transform="translate(0,0)"/>
<path d="" fill="#424142" transform="translate(0,0)"/>
<path d="" fill="#434242" transform="translate(0,0)"/>
<path d="" fill="#414043" transform="translate(0,0)"/>
<path d="" fill="#434142" transform="translate(0,0)"/>
<path d="" fill="#3E3E3D" transform="translate(0,0)"/>
<path d="" fill="#414141" transform="translate(0,0)"/>
<path d="" fill="#434341" transform="translate(0,0)"/>
<path d="" fill="#404040" transform="translate(0,0)"/>
<path d="" fill="#434242" transform="translate(0,0)"/>
<path d="" fill="#434243" transform="translate(0,0)"/>
<path d="" fill="#414041" transform="translate(0,0)"/>
<path d="" fill="#404241" transform="translate(0,0)"/>
<path d="" fill="#414241" transform="translate(0,0)"/>
<path d="" fill="#434141" transform="translate(0,0)"/>
<path d="" fill="#3F3B3D" transform="translate(0,0)"/>
<path d="" fill="#454141" transform="translate(0,0)"/>
<path d="" fill="#404142" transform="translate(0,0)"/>
<path d="" fill="#414040" transform="translate(0,0)"/>
<path d="" fill="#414241" transform="translate(0,0)"/>
<path d="" fill="#454343" transform="translate(0,0)"/>
<path d="" fill="#423E40" transform="translate(0,0)"/>
<path d="" fill="#444443" transform="translate(0,0)"/>
<path d="" fill="#434042" transform="translate(0,0)"/>
<path d="" fill="#434041" transform="translate(0,0)"/>
<path d="" fill="#434344" transform="translate(0,0)"/>
<path d="" fill="#434242" transform="translate(0,0)"/>
<path d="" fill="#444445" transform="translate(0,0)"/>
<path d="" fill="#434143" transform="translate(0,0)"/>
<path d="" fill="#424241" transform="translate(0,0)"/>
<path d="" fill="#423E41" transform="translate(0,0)"/>
<path d="" fill="#434141" transform="translate(0,0)"/>
<path d="" fill="#434041" transform="translate(0,0)"/>
<path d="" fill="#434141" transform="translate(0,0)"/>
<path d="" fill="#424241" transform="translate(0,0)"/>
<path d="" fill="#434240" transform="translate(0,0)"/>
<path d="" fill="#424141" transform="translate(0,0)"/>
<path d="" fill="#4A494A" transform="translate(0,0)"/>
<path d="" fill="#434242" transform="translate(0,0)"/>
<path d="" fill="#424342" transform="translate(0,0)"/>
<path d="" fill="#41403F" transform="translate(0,0)"/>
<path d="" fill="#444245" transform="translate(0,0)"/>
<path d="" fill="#474648" transform="translate(0,0)"/>
<path d="" fill="#434141" transform="translate(0,0)"/>
<path d="" fill="#454343" transform="translate(0,0)"/>
<path d="" fill="#444242" transform="translate(0,0)"/>
<path d="" fill="#4A484A" transform="translate(0,0)"/>
<path d="" fill="#474747" transform="translate(0,0)"/>
<path d="" fill="#434142" transform="translate(0,0)"/>
<path d="" fill="#424142" transform="translate(0,0)"/>
<path d="" fill="#424341" transform="translate(0,0)"/>
<path d="" fill="#424340" transform="translate(0,0)"/>
<path d="" fill="#43403F" transform="translate(0,0)"/>
<path d="" fill="#424041" transform="translate(0,0)"/>
<path d="" fill="#403F40" transform="translate(0,0)"/>
<path d="" fill="#454343" transform="translate(0,0)"/>
<path d="" fill="#474644" transform="translate(0,0)"/>
<path d="" fill="#41403F" transform="translate(0,0)"/>
<path d="" fill="#4F4D4C" transform="translate(0,0)"/>
<path d="" fill="#464544" transform="translate(0,0)"/>
<path d="" fill="#464344" transform="translate(0,0)"/>
<path d="" fill="#413D41" transform="translate(0,0)"/>
<path d="" fill="#454443" transform="translate(0,0)"/>
<path d="" fill="#424242" transform="translate(0,0)"/>
<path d="" fill="#424041" transform="translate(0,0)"/>
<path d="" fill="#434141" transform="translate(0,0)"/>
<path d="" fill="#444342" transform="translate(0,0)"/>
<path d="" fill="#444343" transform="translate(0,0)"/>
<path d="" fill="#434444" transform="translate(0,0)"/>
<path d="" fill="#464342" transform="translate(0,0)"/>
<path d="" fill="#404140" transform="translate(0,0)"/>
<path d="" fill="#41403F" transform="translate(0,0)"/>
<path d="" fill="#454344" transform="translate(0,0)"/>
<path d="" fill="#484546" transform="translate(0,0)"/>
<path d="" fill="#424142" transform="translate(0,0)"/>
<path d="" fill="#494647" transform="translate(0,0)"/>
<path d="" fill="#454345" transform="translate(0,0)"/>
<path d="" fill="#494946" transform="translate(0,0)"/>
<path d="" fill="#424343" transform="translate(0,0)"/>
<path d="" fill="#444243" transform="translate(0,0)"/>
<path d="" fill="#454244" transform="translate(0,0)"/>
<path d="" fill="#464643" transform="translate(0,0)"/>
<path d="" fill="#444344" transform="translate(0,0)"/>
<path d="" fill="#484545" transform="translate(0,0)"/>
<path d="" fill="#464443" transform="translate(0,0)"/>
<path d="" fill="#464545" transform="translate(0,0)"/>
<path d="" fill="#444446" transform="translate(0,0)"/>
<path d="" fill="#414240" transform="translate(0,0)"/>
<path d="" fill="#474645" transform="translate(0,0)"/>
<path d="" fill="#464343" transform="translate(0,0)"/>
<path d="" fill="#424140" transform="translate(0,0)"/>
<path d="" fill="#4B4A49" transform="translate(0,0)"/>
<path d="" fill="#444341" transform="translate(0,0)"/>
<path d="" fill="#444443" transform="translate(0,0)"/>
<path d="" fill="#444542" transform="translate(0,0)"/>
<path d="" fill="#444444" transform="translate(0,0)"/>
<path d="" fill="#464648" transform="translate(0,0)"/>
<path d="" fill="#454245" transform="translate(0,0)"/>
<path d="" fill="#484747" transform="translate(0,0)"/>
<path d="" fill="#474647" transform="translate(0,0)"/>
<path d="" fill="#484647" transform="translate(0,0)"/>
<path d="" fill="#494346" transform="translate(0,0)"/>
<path d="" fill="#4A4B4A" transform="translate(0,0)"/>
<path d="" fill="#444444" transform="translate(0,0)"/>
<path d="" fill="#444445" transform="translate(0,0)"/>
<path d="" fill="#464946" transform="translate(0,0)"/>
<path d="" fill="#484648" transform="translate(0,0)"/>
<path d="" fill="#474647" transform="translate(0,0)"/>
<path d="" fill="#464847" transform="translate(0,0)"/>
<path d="" fill="#474747" transform="translate(0,0)"/>
<path d="" fill="#4C4C4A" transform="translate(0,0)"/>
<path d="" fill="#4B4846" transform="translate(0,0)"/>
<path d="" fill="#4B4A4A" transform="translate(0,0)"/>
<path d="" fill="#494747" transform="translate(0,0)"/>
<path d="" fill="#434243" transform="translate(0,0)"/>
<path d="" fill="#4C4B4B" transform="translate(0,0)"/>
<path d="" fill="#434342" transform="translate(0,0)"/>
<path d="" fill="#474646" transform="translate(0,0)"/>
<path d="" fill="#464344" transform="translate(0,0)"/>
<path d="" fill="#464546" transform="translate(0,0)"/>
<path d="" fill="#484446" transform="translate(0,0)"/>
<path d="" fill="#4B4A49" transform="translate(0,0)"/>
<path d="" fill="#4A4746" transform="translate(0,0)"/>
<path d="" fill="#4A4A49" transform="translate(0,0)"/>
<path d="" fill="#4B4748" transform="translate(0,0)"/>
<path d="" fill="#4B4948" transform="translate(0,0)"/>
<path d="" fill="#4C4B49" transform="translate(0,0)"/>
<path d="" fill="#4C4B4A" transform="translate(0,0)"/>
<path d="" fill="#4C4C4D" transform="translate(0,0)"/>
<path d="" fill="#4B4C4A" transform="translate(0,0)"/>
<path d="" fill="#4A494B" transform="translate(0,0)"/>
<path d="" fill="#49494A" transform="translate(0,0)"/>
<path d="" fill="#4E4E4F" transform="translate(0,0)"/>
<path d="" fill="#464747" transform="translate(0,0)"/>
<path d="" fill="#464546" transform="translate(0,0)"/>
<path d="" fill="#494947" transform="translate(0,0)"/>
<path d="" fill="#474546" transform="translate(0,0)"/>
<path d="" fill="#5B5D5C" transform="translate(0,0)"/>
<path d="" fill="#5A5A5B" transform="translate(0,0)"/>
<path d="" fill="#474445" transform="translate(0,0)"/>
<path d="" fill="#464446" transform="translate(0,0)"/>
<path d="" fill="#5A5A57" transform="translate(0,0)"/>
<path d="" fill="#474846" transform="translate(0,0)"/>
<path d="" fill="#595858" transform="translate(0,0)"/>
<path d="" fill="#4A4946" transform="translate(0,0)"/>
<path d="" fill="#484748" transform="translate(0,0)"/>
<path d="" fill="#606061" transform="translate(0,0)"/>
<path d="" fill="#5D5D5C" transform="translate(0,0)"/>
</svg>
